<?xml version="1.0" encoding="utf-8"?>
<!-- Generator: Adobe Illustrator 19.0.0, SVG Export Plug-In . SVG Version: 6.00 Build 0)  -->
<svg version="1.1" id="Layer_1" xmlns="http://www.w3.org/2000/svg" xmlns:xlink="http://www.w3.org/1999/xlink" x="0px" y="0px"
	 viewBox="0 0 1000 800" style="enable-background:new 0 0 1000 800;" xml:space="preserve">
<style type="text/css">
	.st0{fill:#4F4F4F;}
</style>
<g id="XMLID_1_">
	<g id="XMLID_57_">
		<path id="XMLID_61_" class="st0" d="M200,0H0v600v0c0,110.5,89.5,200,200,200h167h-0.3C272.1,784.1,200,699.1,200,600V0z"/>
		<path id="XMLID_60_" class="st0" d="M467,0H267v600l-0.3,0c0,110.5,89.9,200,200.3,200h166h0.3C538.8,784.1,467,699.1,467,600V0z"
			/>
		<path id="XMLID_59_" class="st0" d="M800,0v400h200V200C1000,89.5,910.5,0,800,0z"/>
		<path id="XMLID_58_" class="st0" d="M733,800V0H533v600l0.3,0c0,110.5,89.5,200,200,200h0"/>
	</g>
</g>
</svg>
